<?xml version="1.0" encoding="UTF-8"?>
<!DOCTYPE svg PUBLIC "-//W3C//DTD SVG 1.1//EN" "http://www.w3.org/Graphics/SVG/1.1/DTD/svg11.dtd">
<!-- Creator: CorelDRAW 2018 (64 Bit) -->
<svg xmlns="http://www.w3.org/2000/svg" xml:space="preserve" width="176.502mm" height="122.627mm" version="1.1" style="shape-rendering:geometricPrecision; text-rendering:geometricPrecision; image-rendering:optimizeQuality; fill-rule:evenodd; clip-rule:evenodd"
viewBox="0 0 186.0724 129.2766"
 xmlns:xlink="http://www.w3.org/1999/xlink">
 <defs>
  <style type="text/css">
   <![CDATA[
    .fil0 {fill:black}
   ]]>
  </style>
 </defs>
 <g id="Camada_x0020_1">
  <metadata id="CorelCorpID_0Corel-Layer"/>
  <path class="fil0" d="M100.7903 98.3135c-0.9794,0.7331 -1.8303,1.7642 -3.4845,1.1157 -1.0382,-0.407 -1.8878,-1.7325 -1.4457,-3.2133 0.8133,-2.7239 5.5115,-2.8431 4.9302,2.0976zm-31.2484 -7.3824c1.711,1.0264 1.1067,0.5459 2.5711,2.0499 1.2408,1.2743 1.0629,0.7984 2.0046,2.7456l-6.3186 1.1499 1.7428 -5.9455zm6.4374 12.7956c-1.3664,11.5845 -15.1199,16.2625 -23.1354,8.1502 -8.0263,-8.1232 -2.8602,-21.8847 8.5299,-22.9447 -0.6657,3.8793 -4.7613,13.4633 -2.1013,16.1449 2.5867,2.6077 12.7146,-0.7608 16.7068,-1.3504zm2.0991 -16.3335c-1.0718,-0.9928 -1.6223,-1.732 -2.9268,-2.66 -1.1031,-0.7848 -2.4501,-1.281 -3.4935,-2.1998l0.3756 -2.1259 24.3011 3.0015c0.2102,2.816 -0.2885,2.9842 -2.4045,3.8014 -1.3748,0.531 -2.7272,1.573 -3.522,2.4344 -0.9802,1.0623 -1.6915,3.0507 -2.7908,3.5031 -0.8345,0.3433 -4.0694,0.7965 -5.1383,0.9582 -0.7392,-2.897 -2.6568,-5.0974 -4.4007,-6.7128zm31.1394 -23.3025c1.1159,1.5323 2.6902,4.8991 4.007,5.9996l5.5382 4.3009 -1.1906 3.4701 -11.1457 -1.3442 2.7911 -12.4263zm22.6679 8.2687c5.3009,-3.1327 13.479,-1.0113 16.5204,3.0812 9.9259,13.3557 -4.9374,27.9317 -17.4121,20.387 -6.1124,-3.6968 -7.8099,-12.0516 -5.4034,-16.0816 5.7391,3.3226 11.9769,12.4952 16.0925,7.2346 2.9406,-3.7586 -1.8849,-6.495 -3.6132,-7.8947 -2.4578,-1.9908 -5.1355,-3.805 -7.3167,-5.8473 0.2393,-0.24 0.2007,-0.2391 0.6595,-0.5708 0.2991,-0.2162 0.1632,-0.1251 0.473,-0.3083zm-32.2193 -23.7377c4.6617,5.3507 3.09,6.0585 1.7961,12.2662 -1.0214,4.9001 -2.1017,9.4976 -3.1381,14.3916l-24.0222 -2.7981c2.5243,-11.5941 -2.1534,-8.9059 -13.4724,-6.8091 -1.8312,0.3392 -3.5845,0.4518 -4.6733,1.6246 -0.951,1.0244 -1.439,3.0717 -0.619,4.6815 1.8185,3.5703 6.4388,1.6716 10.0302,1.1392l-1.9038 7.5812c-11.023,0.1193 -17.5784,5.3625 -20.9809,12.9254 -8.9045,19.7922 14.1921,38.2309 31.0582,27.3336 5.4455,-3.5183 9.3037,-8.5508 10.233,-15.4032 0.5685,-4.1924 -0.3561,-3.6103 4.6529,-4.1917 1.3938,4.6335 6.0038,5.5162 8.0007,6.4628 0.9345,2.7309 1.028,6.4195 2.8401,8.016 2.2204,1.9562 6.1661,0.2822 8.9595,-0.3465 2.9217,-0.6576 6.0756,-2.1393 4.4699,-5.9861 -0.4826,-1.1562 -1.711,-2.2925 -3.2162,-2.4257 -1.7765,-0.1572 -2.9226,0.6497 -4.6156,0.5645 -1.0824,-4.4213 3.7416,-2.5115 4.0473,-10.2255 0.1912,-4.8257 -2.5931,-7.7294 -5.0246,-9.6795l0.6386 -3.1671 11.7415 1.3538c2.9221,23.8704 32.3805,26.5292 41.2484,7.7934 8.4565,-17.8668 -9.2798,-37.0742 -28.1552,-29.2822 -2.4371,1.006 -4.0467,2.4116 -5.7212,3.4063 -6.8576,-5.9066 -2.8702,-0.3333 -9.0321,-10.4882 -2.6315,-4.3369 -4.9542,-8.1453 -7.6354,-12.4461 -2.5016,-4.0125 -2.3055,-7.0947 -13.1372,-3.3765 -2.4429,0.8386 -3.8738,3.8271 -2.1141,6.3283 1.6585,2.3576 4.7661,1.3461 7.745,0.7571z"/>
  <path class="fil0" d="M46.8985 19.021c-5.1126,-0.285 -14.3911,7.5868 -20.7287,9.7148 0.1171,-3.7099 0.9095,-24.0234 0.1086,-25.9963 -1.377,-3.3919 -6.6461,-2.9689 -7.6067,0.6707l-0.6777 25.5727c-0.0473,2.8073 0.4561,3.3269 -0.9149,5.1888 -1.9544,2.6544 2.8192,7.9746 5.6058,12.6497l4.449 7.0892c0.8102,1.0283 0.1589,-0.1987 0.8951,1.1045 -0.7173,16.4132 -2.8559,13.9814 12.7981,16.4596 2.4295,0.3846 4.6347,1.0985 6.4088,-0.4646 1.2973,-1.143 1.9547,-3.3418 0.8248,-5.2781 -1.3672,-2.3429 -8.6424,-2.894 -12.2046,-3.2061l0.5818 -12.5063c2.027,-1.0721 4.3729,-3.0197 6.493,-4.495l13.2601 -9.7717c1.2133,-0.8229 8.9576,-1.3112 10.1724,-0.9611 1.4032,2.7219 2.7044,6.1707 4.1044,9.2489 3.2668,7.1833 5.643,17.2425 12.1347,13.6394 3.7307,-2.0707 2.206,-5.7831 0.7104,-9.367 -2.6495,-6.3488 -5.613,-12.4952 -8.2819,-18.8622 -3.9727,-9.4779 -8.4743,-3.2986 -20.5419,-3.9842l12.0778 -14.3583c1.4277,-1.206 5.0981,0.1602 7.2406,0.5853 5.1318,1.0181 10.1315,1.9983 15.2732,2.9632 7.4004,1.3886 9.0467,-5.8723 5.2927,-8.6581 -1.5319,-1.1368 -27.3369,-6.3521 -29.9729,-5.9797 -2.4459,0.3456 -3.7608,2.6408 -4.9101,4.0467 -2.6682,3.264 -11.7019,13.1246 -12.5921,14.9552z"/>
  <path class="fil0" d="M115.3791 129.1843c17.1103,-0.2948 34.4647,-0.0257 51.6021,-0.0257 8.0033,0 17.9229,1.5855 18.8963,-6.8697 0.398,-3.4572 0.0616,-8.9261 0.0714,-12.6041 0.013,-4.8085 -0.283,-7.175 -3.0819,-9.9319 -8.106,-7.9841 -18.9145,0.7147 -25.5555,6.5755 -10.2205,9.02 -20.7418,4.6758 -30.7466,7.9262 -6.3682,2.0689 -10.7619,7.0731 -11.1858,14.9298z"/>
  <path class="fil0" d="M143.2181 9.5438c-2.7542,1.4379 -4.0833,6.9128 -5.3812,10.3899 -1.4735,3.9475 -2.9228,7.6929 -4.4235,11.5595 -1.4913,3.8424 -2.8782,7.6987 -4.4073,11.5876 -0.773,1.966 -1.8678,3.9711 -0.5099,6.1463 0.9419,1.509 3.1647,2.9102 5.715,1.6765 2.4889,-1.2038 3.9725,-7.1735 5.2391,-10.4154l8.8286 -23.1498c0.7335,-1.9327 1.7758,-3.8758 0.6435,-5.9817 -0.8732,-1.6238 -3.3425,-3.0461 -5.7043,-1.8131z"/>
  <path class="fil0" d="M8.3545 43.7937c-13.8201,2.792 -9.0372,22.1829 3.7451,19.6117 4.8857,-0.9829 8.8077,-5.9418 7.6878,-11.8484 -0.8781,-4.6308 -5.7706,-8.9072 -11.4329,-7.7633z"/>
  <path class="fil0" d="M159.1026 35.4788c-2.1272,0.7577 -9.708,8.6971 -12.1676,11.0099 -1.5289,1.4375 -5.0573,3.7391 -5.6032,6.0055 -0.8607,3.5727 2.1554,6.5499 5.7334,5.3207 2.1045,-0.723 9.8393,-9.0032 12.0904,-10.991 1.5601,-1.3776 5.0322,-3.7535 5.5479,-6.039 0.7599,-3.3673 -2.2568,-6.497 -5.601,-5.306z"/>
  <path class="fil0" d="M114.1417 19.173c-2.8584,1.3696 -2.6834,3.3037 -2.2923,6.9996 0.3075,2.9062 0.6283,6.0534 0.9406,9.0684 0.282,2.7222 0.4466,6.4659 0.965,9.0807 0.8725,4.4004 9.558,6.4473 8.4467,-3.6953 -0.3292,-3.0041 -0.6246,-6.0387 -0.9413,-9.0471 -0.2921,-2.7761 -0.4492,-6.4964 -0.9888,-9.1499 -0.493,-2.4245 -3.1094,-4.7036 -6.13,-3.2565z"/>
 </g>
</svg>
